
        <svg xmlns="http://www.w3.org/2000/svg" xmlns:xlink="http://www.w3.org/1999/xlink" version="1.1" width="2672.179562906084" height="3141.760189013585" viewBox="0 0 2672.179562906084 3141.760189013585">
			
			<g transform="scale(7.088009450679268) translate(10, 10)">
				<defs id="SvgjsDefs1069"><linearGradient id="SvgjsLinearGradient1078"><stop id="SvgjsStop1079" stop-color="#b98947" offset="0"/><stop id="SvgjsStop1080" stop-color="#faf0a1" offset="1"/></linearGradient><linearGradient id="SvgjsLinearGradient1081"><stop id="SvgjsStop1082" stop-color="#b98947" offset="0"/><stop id="SvgjsStop1083" stop-color="#faf0a1" offset="1"/></linearGradient><linearGradient id="SvgjsLinearGradient1084"><stop id="SvgjsStop1085" stop-color="#b98947" offset="0"/><stop id="SvgjsStop1086" stop-color="#faf0a1" offset="1"/></linearGradient><linearGradient id="SvgjsLinearGradient1087"><stop id="SvgjsStop1088" stop-color="#b98947" offset="0"/><stop id="SvgjsStop1089" stop-color="#faf0a1" offset="1"/></linearGradient></defs><g id="SvgjsG1070" featureKey="rootContainer" transform="matrix(1.05,0,0,1.05,-5.25,19)" fill="#000"><path xmlns="http://www.w3.org/2000/svg" fill-rule="evenodd" d="M5,65 L175,0 L345, 65 L175, 10 z M5,305 L175,385 L345,300 L175, 375 z"/></g><g id="SvgjsG1071" featureKey="symbolFeature-0" transform="matrix(1.2962962962962963,0,0,1.2962962962962963,114.5925925925926,79.51851913664076)" fill="#000"><path xmlns="http://www.w3.org/2000/svg" d="m 25.015774,5 c 0,16.40654 -0.906296,25.127199 11.020386,32.292969 0.992042,4.14168 6.436052,6.70634 11.137883,7.46289 -0.02095,0.018 -0.03609,0.03719 -0.03443,0.05859 0.0093,0.12689 0.339189,0.05099 0.350464,0.177735 0.03444,0.387309 -0.746885,0.379867 -0.958207,0.710937 -0.06887,0.10788 -0.0899,0.247197 -0.07496,0.373047 0.185049,1.5577 1.932767,1.509394 1.973136,4.302734 0.165943,11.48357 -5.996232,11.00213 -4.590477,13.34961 1.246284,2.08119 3.86752,2.701172 6.107806,2.701172 2.240296,0 4.863548,-0.619982 6.109831,-2.701172 1.405756,-2.34748 -4.758447,-1.86604 -4.592503,-13.34961 0.04035,-2.79334 1.788076,-2.745034 1.973136,-4.302734 0.01494,-0.12585 -0.0044,-0.265167 -0.07293,-0.373047 -0.211322,-0.33107 -0.992684,-0.323627 -0.958207,-0.710937 0.01131,-0.12676 0.340943,-0.0508 0.350465,-0.177735 0.0021,-0.0281 -0.02436,-0.05447 -0.05673,-0.07617 4.546736,-0.78831 9.682043,-3.392612 11.010256,-7.294922 C 75.901476,30.249159 74.984311,21.52096 74.984311,5 l -11.680799,0 0,7.894531 -0.05267,0 c 0,-1.52727 -5.956362,-2.765625 -13.303469,-2.765625 -6.951514,0 -12.656476,1.108525 -13.250799,2.521485 l 0,-7.650391 z m 2.394503,2.5136719 6.822916,0 0.376799,8.4472661 2.086581,3.458984 0,12.548828 c 0.139629,-0.20789 0.257277,-0.365234 0.257277,-0.365234 0,0 2.543262,3.201285 13.046193,3.603515 10.50292,0.40223 13.046192,-3.603515 13.046192,-3.603515 0,0 0.117596,0.157224 0.257277,0.365234 l 0,-12.548828 2.086581,-3.458984 0.3768,-8.4472661 6.822915,0 c 2.305786,21.8030601 -6.021006,26.7420321 -8.567135,27.7324221 -0.0073,-0.61683 -0.06555,-0.971245 -0.33831,-1.796875 -0.139847,-0.42339 -0.690799,-1.152344 -0.690799,-1.152344 0,0 -2.543261,4.003803 -13.046192,3.601563 -10.502931,-0.402231 -13.044167,-3.601563 -13.044167,-3.601563 0,0 -0.552978,0.728954 -0.692826,1.152344 -0.266449,0.80665 -0.327208,1.164669 -0.336284,1.755859 -2.660368,-1.08241 -10.739172,-6.176146 -8.463818,-27.6914061 z m 22.537095,3.1464841 c 6.545601,0 11.852992,1.104184 11.852992,2.464844 0,1.36066 -5.307391,2.462891 -11.852992,2.462891 -6.545601,0 -11.850967,-1.102231 -11.850966,-2.462891 0,-1.36066 5.305365,-2.464844 11.850966,-2.464844 z M 53.087371,18.5 c 1.5251,0.499463 0.916294,1.07995 0.640155,2.28125 0,0.593121 -7.49e-4,1.209162 0.04659,1.642578 0.0473,0.433434 0.237095,1.87053 0.166115,2.34961 -0.07095,0.479044 -0.33095,1.368126 -0.875148,1.6875 -2.45916,0.964023 -5.395577,0.426818 -6.130089,0 -0.544212,-0.319374 -0.804154,-1.208456 -0.875149,-1.6875 -0.07098,-0.479079 0.118791,-1.916176 0.166116,-2.34961 0.04733,-0.433434 0.04659,-1.049475 0.04659,-1.642578 -0.425181,-1.566814 -0.567282,-1.663954 0.640155,-2.28125 2.046943,-0.621765 4.182476,-0.540919 6.174657,0 z M 42.488353,59.304688 c -4.874951,1.269489 -8.186283,3.747456 -8.186283,6.597656 0,0 -0.506796,5.240786 -1.486941,7.660156 -1.256604,3.10174 -5.495802,5.356214 -5.500065,8.464844 C 27.315043,89.191624 37.44736,95.00001 49.947372,95 c 12.500022,1e-5 22.634363,-5.808376 22.634332,-12.972656 -0.01037,-3.11903 -4.283473,-5.371455 -5.550708,-8.484375 -0.981805,-2.41177 -1.486942,-7.640625 -1.486942,-7.640625 0,-2.84027 -3.286562,-5.310535 -8.133613,-6.583985 2.71894,1.03022 4.295132,2.56559 4.298761,4.1875 1.14e-4,2.99905 -5.276821,5.429698 -11.78614,5.429688 -6.509309,1e-5 -11.786265,-2.430638 -11.786141,-5.429688 0.0073,-1.63053 1.605587,-3.172492 4.351432,-4.201171 z" fill-opacity="1" fill-rule="evenodd" stroke="none"/></g><g id="SvgjsG1072" featureKey="nameFeature-0" transform="matrix(1.1083824418103567,0,0,1.1083824418103567,3.199858466219453,223.7820941579041)" fill="#000"><path d="M4.7059 16.203 l-3.984 0 l0 -4.2513 l11.658 0 l0 4.2513 l-5.0802 0 l1.0963 0.80214 l0 22.968 l-3.6898 0 l0 -23.77 z M17.593557754010696 11.952000000000002 l0 11.872 l4.3048 0 l0 -11.872 l3.6631 0 l0 27.995 l-3.6631 0 l0 -11.898 l-5.4011 0 l1.0963 0.82888 l0 11.07 l-3.6898 0 l0 -27.193 l-0.66845 -0.80214 l4.3583 0 z M27.700490909090906 12.861 l-0.66845 -0.82888 l10.508 0 l0 4.2246 l-7.246 0 l1.0963 0.82888 l0 6.8182 l4.3316 0 l0 4.2513 l-5.4278 0 l1.0963 0.80214 l0 6.8449 l6.1497 0 l0 4.2246 l-9.8396 0 l0 -4.2246 l0 -7.6471 l0 -4.2513 l0 -11.043 z M44.89304973262032 12.004999999999999 l5.2406 0 l3.4225 15.267 l0 -15.241 l3.6631 0 l0 27.968 l-4.5722 0 l-3.3957 -15.187 l0 15.214 l-3.6898 0 l0 -27.193 z M63.20853101604278 31.604300000000002 l3.7701 0 l-1.8717 -15.348 z M58.47593101604278 40.053476 l3.3422 -27.193 l-0.66845 -0.80214 l7.139 0 l3.4492 27.995 l-3.7166 0 l-0.50802 -4.2246 l-5.9091 -0.026738 l0.9893 0.7754 l-0.42781 3.4759 l-3.6898 0 z M73.98397486631015 16.203 l-3.984 0 l0 -4.2513 l11.658 0 l0 4.2513 l-5.0802 0 l1.0963 0.80214 l0 22.968 l-3.6898 0 l0 -23.77 z M86.87163262032085 39.946524 l-3.6898 0 l0 -27.166 l-0.66845 -0.82888 l4.3583 0 l0 27.995 z M92.13899946524064 35.8021 l4.3316 0 l0 -19.545 l-5.4011 0 l1.0695 0.82888 l0 18.717 z M100.13329946524064 14.678999999999998 l0 22.701 c0 1.4973 -1.1497 2.6471 -2.6471 2.6471 l-6.3636 0 c-1.4973 0 -2.6471 -1.1497 -2.6471 -2.6471 l0 -22.701 c0 -1.4171 1.1497 -2.6471 2.6471 -2.6471 l6.3636 0 c1.4973 0 2.6471 1.2299 2.6471 2.6471 z M101.06952032085562 12.004999999999999 l5.2406 0 l3.4225 15.267 l0 -15.241 l3.6631 0 l0 27.968 l-4.5722 0 l-3.3957 -15.187 l0 15.214 l-3.6898 0 l0 -27.193 z M119.38500160427809 31.604300000000002 l3.7701 0 l-1.8717 -15.348 z M114.65240160427808 40.053476 l3.3422 -27.193 l-0.66845 -0.80214 l7.139 0 l3.4492 27.995 l-3.7166 0 l-0.50802 -4.2246 l-5.9091 -0.026738 l0.9893 0.7754 l-0.42781 3.4759 l-3.6898 0 z M128.55614491978608 12.032 l4.3583 0 l0 23.77 l6.1497 0 l0 4.2246 l-9.8396 0 l0 -0.026738 l0 -4.1979 l0 -22.968 z M157.72688235294117 14.678999999999998 l0 5.7754 l-3.6631 0 l0 -4.2246 l-5.4011 0 l1.0695 0.82888 l0 3.3957 l7.9947 9.8128 l0 4.2246 l0 2.8877 c0 1.4171 -1.1497 2.6471 -2.6471 2.6471 l-6.3636 0 c-1.4973 0 -2.6471 -1.2299 -2.6471 -2.6471 l0 -5.9626 l3.6631 0 l0 4.385 l4.3316 0 l0 -4.2246 l-7.9947 -9.8128 l0 -7.0856 c0 -1.4973 1.1497 -2.6471 2.6471 -2.6471 l6.3636 0 c1.4973 0 2.6471 1.1497 2.6471 2.6471 z M158.39572352941173 12.004999999999999 l5.2406 0 l3.4225 15.267 l0 -15.241 l3.6631 0 l0 27.968 l-4.5722 0 l-3.3957 -15.187 l0 15.214 l-3.6898 0 l0 -27.193 z M175.93579090909088 35.8021 l4.3316 0 l0 -19.545 l-5.4011 0 l1.0695 0.82888 l0 18.717 z M183.9300909090909 14.678999999999998 l0 22.701 c0 1.4973 -1.1497 2.6471 -2.6471 2.6471 l-6.3636 0 c-1.4973 0 -2.6471 -1.1497 -2.6471 -2.6471 l0 -22.701 c0 -1.4171 1.1497 -2.6471 2.6471 -2.6471 l6.3636 0 c1.4973 0 2.6471 1.2299 2.6471 2.6471 z M189.17108502673796 35.8021 l4.3316 0 l0 -19.545 l-5.4011 0 l1.0695 0.82888 l0 18.717 z M197.16538502673797 14.678999999999998 l0 22.701 c0 1.4973 -1.1497 2.6471 -2.6471 2.6471 l-6.3636 0 c-1.4973 0 -2.6471 -1.1497 -2.6471 -2.6471 l0 -22.701 c0 -1.4171 1.1497 -2.6471 2.6471 -2.6471 l6.3636 0 c1.4973 0 2.6471 1.2299 2.6471 2.6471 z M202.43314759358287 23.048 l5.2406 -11.043 l4.1176 0 l-6.6845 14.011 l6.6845 14.011 l-4.1176 0 l-5.2406 -11.043 l0 11.016 l-3.6898 0 l0 -26.925 l-0.85561 -1.0695 l4.5455 0 l0 11.043 z M213.28872620320857 12.861 l-0.66845 -0.82888 l10.508 0 l0 4.2246 l-7.246 0 l1.0963 0.82888 l0 6.8182 l4.3316 0 l0 4.2513 l-5.4278 0 l1.0963 0.80214 l0 6.8449 l6.1497 0 l0 4.2246 l-9.8396 0 l0 -4.2246 l0 -7.6471 l0 -4.2513 l0 -11.043 z M228.3422347593583 23.824 l4.3048 0 l0 -7.6738 l-5.4011 0 l1.0963 0.82888 l0 6.8449 z M236.3105347593583 14.599 l0 10.802 c0 1.4973 -1.1497 2.6471 -2.6471 2.6471 l-0.50802 0 l3.1551 11.898 l-3.7968 0 l-3.1551 -11.898 l-2.1123 0 l1.0963 0.82888 l0 11.07 l-3.6898 0 l0 -23.797 l0 -3.3957 l-0.66845 -0.82888 l9.6791 0.026738 c1.4973 0 2.6471 1.1497 2.6471 2.6471 z M243.796786631016 12.032 l4.3583 0 l0 23.77 l6.1497 0 l0 4.2246 l-9.8396 0 l0 -0.026738 l0 -4.1979 l0 -22.968 z M254.91974224598928 12.861 l-0.66845 -0.82888 l10.508 0 l0 4.2246 l-7.246 0 l1.0963 0.82888 l0 6.8182 l4.3316 0 l0 4.2513 l-5.4278 0 l1.0963 0.80214 l0 6.8449 l6.1497 0 l0 4.2246 l-9.8396 0 l0 -4.2246 l0 -7.6471 l0 -4.2513 l0 -11.043 z M270.1336647058823 31.604300000000002 l3.7701 0 l-1.8717 -15.348 z M265.40106470588233 40.053476 l3.3422 -27.193 l-0.66845 -0.80214 l7.139 0 l3.4492 27.995 l-3.7166 0 l-0.50802 -4.2246 l-5.9091 -0.026738 l0.9893 0.7754 l-0.42781 3.4759 l-3.6898 0 z M291.3637219251337 14.678999999999998 l0 7.1658 l-3.6631 0 l0 -5.5882 l-5.4011 0 l1.0695 0.82888 l0 18.717 l4.3316 0 l0 -11.07 l-1.0963 -0.82888 l4.7594 0 l0 16.123 l-9.0107 0 c-1.4973 0 -2.6471 -1.1497 -2.6471 -2.6471 l0 -22.701 c0 -1.4171 1.1497 -2.6471 2.6471 -2.6471 l6.3636 0 c1.4973 0 2.6471 1.2299 2.6471 2.6471 z M296.5507529411765 35.8021 l4.3048 0 l0 -23.797 l3.6898 0 l0 25.348 c0 1.4973 -1.2299 2.6471 -2.6471 2.6471 l-6.3636 0.026738 c-1.4973 0 -2.6471 -1.1765 -2.6471 -2.6738 l0 -24.519 l-0.026738 0 l-0.66845 -0.82888 l4.3583 0 l0 23.797 z M306.6577101604278 12.861 l-0.66845 -0.82888 l10.508 0 l0 4.2246 l-7.246 0 l1.0963 0.82888 l0 6.8182 l4.3316 0 l0 4.2513 l-5.4278 0 l1.0963 0.80214 l0 6.8449 l6.1497 0 l0 4.2246 l-9.8396 0 l0 -4.2246 l0 -7.6471 l0 -4.2513 l0 -11.043 z"/></g><g id="SvgjsG1073" featureKey="sloganFeature-0" transform="matrix(1.2706413777985641,0,0,1.2706413777985641,55.72935862220144,278.95303474726563)" fill="#000"><path d="M1.26 20 c-0.14 0 -0.26 -0.12 -0.26 -0.26 l0 -11.98 c0 -0.14 0.12 -0.26 0.26 -0.26 l2.36 0 c0.08 0 0.16 0.04 0.22 0.1 l4.6 7.1 l0 -6.94 c0 -0.14 0.12 -0.26 0.26 -0.26 l2.46 0 c0.14 0 0.26 0.12 0.26 0.26 l0 11.98 c0 0.14 -0.12 0.26 -0.26 0.26 l-2.36 0 c-0.08 0 -0.16 -0.04 -0.22 -0.1 l-4.58 -7.06 l0 6.9 c0 0.14 -0.12 0.26 -0.26 0.26 l-2.48 0 z M27.604 20.12 c-0.96 0 -1.92 -0.18 -2.84 -0.54 c-0.92 -0.34 -1.74 -0.84 -2.42 -1.44 c-0.08 -0.08 -0.1 -0.2 -0.06 -0.3 l0.7 -2.38 c0.04 -0.08 0.1 -0.14 0.18 -0.14 c0.08 -0.02 0.16 0 0.22 0.06 c1.06 1 2.26 1.9 3.76 1.98 c0.4 0.02 0.84 0.04 1.22 -0.08 c1.18 -0.38 0.68 -1.58 -0.2 -1.94 c-0.3 -0.12 -0.72 -0.26 -1.26 -0.42 c-0.8 -0.22 -1.46 -0.46 -1.96 -0.7 c-0.54 -0.24 -1 -0.62 -1.4 -1.12 c-0.38 -0.52 -0.58 -1.2 -0.58 -2.02 c0 -0.78 0.2 -1.46 0.6 -2.04 s0.96 -1.04 1.66 -1.34 s1.52 -0.46 2.44 -0.46 c0.82 0 1.62 0.12 2.42 0.38 c0.78 0.24 1.48 0.58 2.1 0.98 c0.1 0.08 0.14 0.2 0.08 0.32 l-0.66 2.24 c-0.02 0.08 -0.08 0.12 -0.16 0.14 c-0.06 0.02 -0.14 0.02 -0.2 -0.02 c-0.9 -0.56 -1.8 -1.24 -2.86 -1.38 c-0.7 -0.1 -1.76 -0.06 -2 0.78 c-0.3 1.08 1.28 1.36 2 1.58 c0.8 0.24 1.46 0.48 1.98 0.72 c0.54 0.26 1.02 0.66 1.4 1.16 c0.4 0.52 0.6 1.22 0.6 2.06 c0 0.82 -0.22 1.52 -0.64 2.12 c-0.4 0.6 -0.98 1.04 -1.7 1.36 c-0.72 0.28 -1.52 0.44 -2.42 0.44 z M43.467999999999996 20 c-0.14 0 -0.26 -0.12 -0.26 -0.26 l0 -11.98 c0 -0.14 0.12 -0.26 0.26 -0.26 l2.6 0 c0.14 0 0.26 0.12 0.26 0.26 l0 9.36 l4.5 0 c0.14 0 0.26 0.12 0.26 0.26 l0 2.36 c0 0.14 -0.12 0.26 -0.26 0.26 l-7.36 0 z M62.192 15.82 c-0.14 0 -0.26 -0.12 -0.26 -0.26 l0 -1.74 c0 -0.14 0.12 -0.26 0.26 -0.26 l6.7 0 c0.14 0 0.26 0.12 0.26 0.26 l0 1.74 c0 0.14 -0.12 0.26 -0.26 0.26 l-6.7 0 z M83.236 20 c-0.14 0 -0.24 -0.12 -0.24 -0.26 l0 -9.44 l-2.74 0 c-0.14 0 -0.26 -0.1 -0.26 -0.24 l0 -2.3 c0 -0.14 0.12 -0.26 0.26 -0.26 l8.58 0 c0.16 0 0.26 0.12 0.26 0.26 l0 2.3 c0 0.14 -0.1 0.24 -0.26 0.24 l-2.74 0 l0 9.44 c0 0.14 -0.12 0.26 -0.26 0.26 l-2.6 0 z M104.20000000000002 20 c-0.1 0 -0.2 -0.06 -0.24 -0.16 l-4 -12 c-0.04 -0.08 -0.02 -0.16 0.02 -0.24 c0.06 -0.06 0.14 -0.1 0.22 -0.1 l2.8 0 c0.1 0 0.2 0.06 0.24 0.18 l2.38 7.82 l2.4 -7.82 c0.04 -0.12 0.14 -0.18 0.24 -0.18 l2.68 0 c0.08 0 0.16 0.04 0.22 0.1 c0.04 0.08 0.06 0.16 0.02 0.24 l-4.06 12 c-0.04 0.1 -0.12 0.16 -0.24 0.16 l-2.68 0 z M123.364 20 c-0.38 0 -0.7 -0.14 -0.94 -0.4 c-0.24 -0.28 -0.38 -0.6 -0.38 -1 s0.14 -0.72 0.38 -0.98 c0.26 -0.26 0.56 -0.4 0.94 -0.4 s0.7 0.14 0.94 0.4 s0.36 0.58 0.36 0.98 s-0.12 0.74 -0.36 1 s-0.56 0.4 -0.94 0.4 z M141.80800000000002 20 c-1.18 0 -2.26 -0.28 -3.22 -0.84 c-0.96 -0.58 -1.72 -1.36 -2.26 -2.34 s-0.82 -2.08 -0.82 -3.3 c0 -1.18 0.28 -2.28 0.84 -3.26 c0.56 -0.96 1.34 -1.74 2.3 -2.3 c0.98 -0.56 2.08 -0.84 3.24 -0.84 c0.88 0 1.74 0.2 2.58 0.56 c0.84 0.38 1.56 0.88 2.16 1.52 c0.08 0.1 0.08 0.24 0 0.34 l-1.9 1.56 c-0.06 0.06 -0.12 0.1 -0.2 0.1 s-0.16 -0.04 -0.2 -0.1 c-1.02 -1.24 -2.66 -1.5 -4.04 -0.64 c-1.2 0.74 -1.64 2.1 -1.58 3.46 c0.06 1.38 1.06 2.56 2.38 2.96 c1.2 0.36 2.38 0.08 3.24 -0.84 c0.06 -0.04 0.12 -0.08 0.2 -0.06 c0.08 0 0.14 0.02 0.18 0.08 l1.94 1.36 c0.08 0.1 0.08 0.24 0 0.34 c-0.64 0.68 -1.4 1.24 -2.24 1.64 c-0.86 0.4 -1.74 0.6 -2.6 0.6 z M163.99200000000002 20 c-1.2 0 -2.3 -0.28 -3.26 -0.84 c-0.98 -0.56 -1.76 -1.36 -2.34 -2.32 c-0.56 -0.98 -0.84 -2.1 -0.84 -3.3 c0 -1.18 0.28 -2.28 0.84 -3.26 c0.58 -0.98 1.34 -1.76 2.32 -2.32 s2.08 -0.84 3.28 -0.84 c1.18 0 2.28 0.28 3.26 0.84 s1.76 1.34 2.32 2.32 c0.58 0.98 0.86 2.08 0.86 3.26 c0 1.2 -0.28 2.3 -0.86 3.28 c-0.56 0.98 -1.34 1.76 -2.32 2.34 c-0.98 0.56 -2.08 0.84 -3.26 0.84 z M164.032 17.12 c0.58 0 1.12 -0.16 1.6 -0.46 c0.5 -0.32 0.9 -0.74 1.18 -1.3 c0.3 -0.54 0.44 -1.16 0.44 -1.82 c0 -0.64 -0.14 -1.26 -0.44 -1.8 c-0.28 -0.54 -0.68 -0.96 -1.18 -1.28 c-0.48 -0.3 -1.02 -0.46 -1.6 -0.46 c-0.6 0 -1.14 0.16 -1.64 0.46 c-0.52 0.32 -0.92 0.74 -1.22 1.28 c-0.3 0.56 -0.44 1.16 -0.44 1.8 c0 0.66 0.14 1.28 0.44 1.82 c0.32 0.54 0.72 0.98 1.22 1.28 c0.5 0.32 1.04 0.48 1.64 0.48 z M181.336 20 c-0.14 0 -0.26 -0.12 -0.26 -0.26 l0 -11.98 c0 -0.14 0.12 -0.26 0.26 -0.26 l2.88 0 c0.1 0 0.2 0.06 0.24 0.14 l3 7.4 l2.98 -7.4 c0.04 -0.08 0.14 -0.14 0.24 -0.14 l2.88 0 c0.14 0 0.26 0.12 0.26 0.26 l0 11.98 c0 0.14 -0.12 0.26 -0.26 0.26 l-2.34 0 c-0.14 0 -0.26 -0.12 -0.26 -0.26 l0 -6.44 l-2.44 6.2 c-0.04 0.08 -0.14 0.14 -0.22 0.14 l-1.68 0 c-0.1 0 -0.2 -0.06 -0.24 -0.14 l-2.46 -6.2 l0 6.44 c0 0.14 -0.12 0.26 -0.26 0.26 l-2.32 0 z"/></g>
			</g>
		</svg>
	